<?xml version="1.0" standalone="no"?>
<!DOCTYPE svg PUBLIC "-//W3C//DTD SVG 20010904//EN"
 "http://www.w3.org/TR/2001/REC-SVG-20010904/DTD/svg10.dtd">
<svg version="1.0" xmlns="http://www.w3.org/2000/svg"
 width="512.000000pt" height="512.000000pt" viewBox="0 0 512.000000 512.000000"
 preserveAspectRatio="xMidYMid meet">

<g transform="translate(0.000000,512.000000) scale(0.100000,-0.100000)"
fill="#000000" stroke="none">
<path d="M2740 3914 c-344 -33 -704 -159 -981 -345 -142 -95 -227 -167 -420
-356 l-176 -173 -254 0 c-296 0 -353 -9 -479 -72 -118 -59 -219 -160 -278
-278 -63 -125 -74 -196 -70 -430 l3 -195 32 -67 c44 -93 100 -151 191 -196
l76 -37 253 -3 253 -4 0 -23 c0 -34 44 -157 74 -208 174 -297 533 -410 834
-261 175 86 306 251 343 433 l13 61 568 0 568 0 0 -24 c0 -34 43 -158 74 -209
174 -297 533 -410 834 -261 174 85 306 251 343 432 l13 60 125 4 c120 4 129 5
189 38 70 37 100 68 140 144 l27 51 0 370 0 370 -32 67 c-56 118 -157 201
-278 228 -45 10 -64 25 -230 188 -99 98 -211 203 -250 233 -290 231 -616 377
-980 440 -117 20 -416 33 -525 23z m140 -514 l0 -360 -742 0 -743 0 95 96
c195 197 367 324 574 424 236 115 535 192 769 199 l47 1 0 -360z m435 319
c220 -44 482 -152 670 -276 114 -75 244 -184 365 -307 l95 -96 -703 0 -702 0
0 358 0 358 88 -8 c48 -5 132 -18 187 -29z m-2597 -988 c-3 -163 -8 -178 -72
-225 -25 -19 -44 -21 -213 -24 l-186 -3 7 33 c22 111 128 250 235 307 64 34
148 59 199 60 l33 1 -3 -149z m3682 13 c0 -170 9 -204 75 -269 65 -66 99 -75
269 -75 l137 0 -3 -189 c-3 -173 -5 -192 -24 -217 -45 -60 -66 -69 -188 -72
l-112 -4 -12 62 c-38 183 -174 355 -347 437 -304 144 -658 32 -831 -264 -31
-51 -74 -175 -74 -209 l0 -24 -568 0 -568 0 -13 61 c-37 182 -174 354 -346
436 -304 144 -658 32 -831 -264 -31 -51 -74 -175 -74 -209 l0 -24 -221 0
c-263 0 -284 5 -354 75 -62 61 -75 101 -75 228 l0 95 203 4 c196 3 203 4 253
30 76 40 107 70 145 140 l34 63 3 163 4 162 1759 0 1759 0 0 -136z m314 124
c55 -16 138 -99 154 -154 7 -23 12 -67 12 -98 l0 -56 -135 0 c-131 0 -137 1
-160 25 -24 23 -25 29 -25 160 l0 135 56 0 c31 0 75 -5 98 -12z m-3079 -563
c238 -62 393 -291 358 -531 -30 -212 -196 -377 -409 -407 -329 -48 -612 266
-529 586 67 258 329 417 580 352z m2400 0 c238 -62 393 -291 358 -531 -30
-212 -196 -377 -409 -407 -329 -48 -612 266 -529 586 67 258 329 417 580 352z"/>
<path d="M2240 2640 l0 -80 320 0 320 0 0 80 0 80 -320 0 -320 0 0 -80z"/>
<path d="M3040 2640 l0 -80 320 0 320 0 0 80 0 80 -320 0 -320 0 0 -80z"/>
<path d="M1420 2144 c-142 -52 -229 -183 -218 -327 26 -318 443 -407 597 -127
33 60 36 71 36 150 0 78 -3 91 -34 148 -58 106 -144 161 -265 168 -50 3 -84
-1 -116 -12z m163 -158 c103 -43 128 -177 48 -257 -65 -65 -157 -65 -222 0
-124 123 13 325 174 257z"/>
<path d="M3820 2144 c-142 -52 -229 -183 -218 -327 26 -318 443 -407 597 -127
33 60 36 71 36 150 0 78 -3 91 -34 148 -58 106 -144 161 -265 168 -50 3 -84
-1 -116 -12z m163 -158 c103 -43 128 -177 48 -257 -65 -65 -157 -65 -222 0
-124 123 13 325 174 257z"/>
</g>
</svg>
