<svg id="Слой_1" data-name="Слой 1" xmlns="http://www.w3.org/2000/svg" viewBox="0 0 60 60"><defs><style>.cls-1{fill:#de2f3d;}</style></defs><path class="cls-1" d="M30.25,46.38l-.25.24-.27-.24C17.85,35.6,10,28.48,10,21.25a8.54,8.54,0,0,1,8.75-8.75,9.8,9.8,0,0,1,8.92,5.9h4.66a9.8,9.8,0,0,1,8.92-5.9A8.54,8.54,0,0,1,50,21.25C50,28.48,42.15,35.6,30.25,46.38Zm11-38.88A15,15,0,0,0,30,12.7,15,15,0,0,0,18.75,7.5,13.6,13.6,0,0,0,5,21.25c0,9.42,8.5,17.15,21.38,28.83L30,53.38l3.62-3.3C46.5,38.4,55,30.67,55,21.25A13.6,13.6,0,0,0,41.25,7.5Z"/></svg>