<?xml version="1.0" encoding="UTF-8"?> <svg xmlns="http://www.w3.org/2000/svg" width="60" height="60" viewBox="0 0 60 60" fill="none"> <path d="M29.8926 3.92578C19.9331 3.92578 11.8301 12.03 11.8301 21.9918C11.8301 25.3131 12.7532 28.5679 14.5026 31.4192C14.5211 31.4676 14.5438 31.5154 14.5713 31.5609L28.8331 55.4246C28.9939 55.693 29.2821 55.8586 29.5948 55.861C29.5972 55.861 29.6002 55.861 29.6026 55.861C29.9123 55.861 30.2005 55.7008 30.3643 55.4377L45.2066 31.574C45.2389 31.5226 45.2652 31.4682 45.2855 31.412C47.0349 28.5613 47.9586 25.3083 47.9586 21.9912C47.9586 12.03 39.8538 3.92578 29.8926 3.92578ZM43.6635 30.624C43.6306 30.6766 43.6037 30.7316 43.5834 30.7884L29.6181 53.2423L16.2047 30.798C16.1832 30.7376 16.1551 30.6796 16.1204 30.624C14.487 28.0214 13.6237 25.0368 13.6237 21.9918C13.6237 13.0195 20.922 5.71941 29.8926 5.71941C38.8655 5.71941 46.165 13.0189 46.165 21.9918C46.165 25.0356 45.3005 28.0202 43.6635 30.624Z" fill="black"></path> <path d="M34.7045 15.0677C34.7045 15.0677 34.7039 15.0677 34.7033 15.0677C33.1775 15.0677 31.7438 15.662 30.6658 16.7412C30.3699 17.0377 30.1104 17.3606 29.8904 17.705C28.8746 16.12 27.0989 15.0671 25.0816 15.0671C21.932 15.0671 19.3701 17.6296 19.3701 20.7787C19.3701 21.9912 19.7617 23.1606 20.5228 24.189L29.192 35.0177C29.3624 35.23 29.6195 35.3537 29.8922 35.3537C30.1648 35.3537 30.4231 35.2294 30.5929 35.0165L39.448 23.9187C39.4666 23.8948 39.4845 23.8709 39.5007 23.8452C40.0991 22.9173 40.4154 21.8566 40.4154 20.7793C40.416 17.6302 37.8535 15.0677 34.7045 15.0677ZM38.0167 22.8372L29.891 33.0208L21.9434 23.0954C21.4328 22.4055 21.1632 21.6043 21.1632 20.7787C21.1632 18.6185 22.9209 16.8608 25.081 16.8608C27.2394 16.8608 28.9953 18.6185 28.9953 20.7787C28.9953 21.2743 29.3965 21.6755 29.8922 21.6755C30.3878 21.6755 30.789 21.2743 30.789 20.7787C30.789 19.7324 31.1961 18.7483 31.9351 18.0087C32.6741 17.2685 33.657 16.8614 34.7033 16.8614C34.7039 16.8614 34.7045 16.8614 34.7045 16.8614C36.8646 16.8614 38.6224 18.6191 38.6224 20.7793C38.6224 21.4973 38.4131 22.2082 38.0167 22.8372Z" fill="black"></path> </svg> 