<?xml version="1.0" encoding="UTF-8"?> <svg xmlns="http://www.w3.org/2000/svg" width="60" height="60" viewBox="0 0 60 60" fill="none"> <path d="M26.9914 10.3146L17.5574 7.57753C17.329 7.51056 17.0839 7.53866 16.8752 7.65286C16.6665 7.76706 16.5123 7.96017 16.4465 8.18856L10.7726 27.7543C10.3397 29.2418 10.5137 30.8101 11.2617 32.1697C11.8643 33.2644 12.7839 34.1116 13.8947 34.6276L9.75859 48.8889L5.96502 47.7882C5.4885 47.6489 4.99226 47.9239 4.85415 48.3992C4.71604 48.8745 4.98987 49.3726 5.46519 49.5101L10.1113 50.8583C10.1131 50.8589 10.1149 50.8601 10.1173 50.8607C10.1191 50.8613 10.1203 50.8607 10.1221 50.8613L14.7677 52.2095C14.8514 52.234 14.9351 52.2454 15.0176 52.2454C15.4062 52.2454 15.7649 51.9907 15.8785 51.5985C16.0166 51.1226 15.7428 50.6251 15.2675 50.4876L11.4805 49.3887L15.6166 35.1292C15.8642 35.1615 16.1129 35.1824 16.3604 35.1824C17.326 35.1824 18.2814 34.9391 19.1513 34.4602C20.5103 33.7116 21.4968 32.4794 21.9279 30.9895L27.603 11.4261C27.7405 10.9496 27.4667 10.4522 26.9914 10.3146ZM20.2048 30.4896C19.9065 31.5198 19.2255 32.3706 18.2862 32.8883C17.3481 33.4043 16.266 33.5251 15.2364 33.2273C15.2358 33.2273 15.2352 33.2267 15.2346 33.2267C15.234 33.2267 15.2328 33.2267 15.2322 33.2261C14.2027 32.9278 13.3507 32.2456 12.8335 31.3051C12.3163 30.3659 12.1968 29.2825 12.4951 28.2547L13.7405 23.9601H22.0995L20.2048 30.4896ZM22.6197 22.1665H14.2601L17.9185 9.54935L25.63 11.7866L22.6197 22.1665Z" fill="black"></path> <path d="M54.9319 48.2008C54.7854 47.7272 54.2844 47.4636 53.8102 47.6083L50.037 48.7741L45.6533 34.5846C48.1794 33.3493 49.5103 30.4269 48.6571 27.6623H48.6565L42.64 8.19817C42.4947 7.72524 41.9925 7.46098 41.5184 7.60626L32.134 10.5066C31.9068 10.5771 31.7172 10.7344 31.606 10.9448C31.4942 11.1553 31.4715 11.401 31.5427 11.6282L37.5586 31.0911C38.0165 32.5721 39.0234 33.7864 40.3943 34.5104C41.2415 34.9582 42.1653 35.1854 43.0974 35.1854C43.3784 35.1854 43.6606 35.1633 43.9416 35.1215L48.3229 49.3039L44.5574 50.4673C44.0839 50.6138 43.819 51.116 43.9649 51.589C44.0839 51.9746 44.439 52.2215 44.8223 52.2215C44.9095 52.2215 44.9986 52.209 45.0865 52.1821L54.34 49.323C54.8129 49.1759 55.0777 48.6737 54.9319 48.2008ZM41.1919 9.58466L43.4537 16.9022H35.0498L33.5211 11.9559L41.1919 9.58466ZM41.232 32.9248C40.2843 32.4244 39.5884 31.5856 39.2721 30.5614L35.6041 18.6958H44.0073L46.9423 28.192C47.594 30.3013 46.406 32.55 44.2949 33.2076C44.2931 33.2082 44.2913 33.2082 44.2889 33.2088C44.2865 33.2094 44.2848 33.2106 44.283 33.2112C43.2624 33.5257 42.1778 33.4253 41.232 32.9248Z" fill="black"></path> </svg> 